<svg width="128" height="128" viewBox="0 0 128 128" xmlns="http://www.w3.org/2000/svg">
  <g fill="none" fill-rule="evenodd">
    <g>
      <g>
        <path fill="#7CB342" d="M0 0H128V128H0z"/>
        <path d="M103.518107,37.2714958 L68.4721012,16.9431768 C66.2642099,15.6856077 63.3719597,15.6856077 61.1466023,16.9431768 L25.8266939,37.2714958 C23.5489377,38.5822575 22,41.045791 22,43.6808111 L22,84.2834625 C22,86.9184826 23.5814884,89.38281 25.8600385,90.700717 L35.171925,96.0104533 C39.6393123,98.2111992 40.8770334,98.2111992 42.9094683,98.2111992 C49.5259967,98.2111992 52.9620821,94.2106369 52.9620821,87.2328749 L52.9620821,47.1478593 C52.962876,46.5817944 53.3161703,45.7394454 52.7596325,45.7394454 L48.2962148,45.7394454 C47.7309439,45.7394454 46.6115168,46.5817944 46.6115168,47.1470654 L46.6115168,87.232081 C46.6115168,90.3251929 43.7407025,93.4032203 38.511946,90.7888421 L28.888049,85.2210819 C28.5530148,85.0384803 28.3513592,84.6708954 28.3513592,84.2834625 L28.3513592,43.6808111 C28.3513592,43.2981417 28.7189441,42.9138845 29.0587418,42.7177863 L64.291319,22.4243998 C64.6207957,22.2378286 65.0868267,22.2378286 65.4147156,22.4243998 L100.317816,42.7130228 C100.652056,42.9138845 100.598864,43.2862329 100.598864,43.6808111 L100.598864,84.2834625 C100.598864,84.6708954 100.671904,85.0480073 100.342428,85.2345785 L65.3043608,105.539874 C65.004259,105.720094 64.6136505,105.720094 64.2841737,105.539874 L55.2993822,100.181708 C55.0286555,100.024512 54.7023545,99.968144 54.4419487,100.113431 C51.9450707,101.52899 51.4814214,101.717149 49.1393578,102.52933 C48.562178,102.730191 47.7110959,103.078722 49.4632771,104.060801 L61.2117037,111.010776 C62.3358943,111.66179 63.6148992,112 64.9010495,112 C66.2046659,112 67.4804952,111.66179 68.6054797,111.010776 L103.518901,90.700717 C105.798245,89.3732829 106.950223,86.9184826 106.950223,84.2834625 L106.950223,43.6808111 C106.949429,41.045791 105.797451,38.5886089 103.518107,37.2714958 L103.518107,37.2714958 Z M75.7698128,77.8495356 C66.4595142,77.8495356 64.409613,75.2812048 63.726048,70.6518579 C63.6450682,70.1532762 63.2227028,69.5570423 62.7145941,69.5570423 L58.1654331,69.5570423 C57.6025439,69.5570423 57.1492156,70.2398134 57.1492156,70.8003209 C57.1492156,76.7277268 60.3725304,83.9095262 75.7698128,83.9095262 C86.9148604,83.9095262 93.3059155,79.5786932 93.3059155,71.9141905 C93.3059155,64.3147892 88.1716356,62.3204625 77.3624162,60.8898188 C66.4364905,59.4456785 65.3265905,58.7160661 65.3265905,56.1564684 C65.3265905,54.0462293 66.2665917,51.2317833 74.3566354,51.2317833 C81.5844822,51.2317833 84.2488773,52.7831027 85.3452807,57.6553891 C85.4397572,58.1134809 85.858153,58.4421638 86.3305353,58.4421638 L90.8987504,58.4421638 C91.179798,58.4421638 91.4473491,58.3286332 91.6442412,58.1277715 C91.8355759,57.9118253 91.9356098,57.6410986 91.9109983,57.3505239 C91.2020278,48.9595845 85.6287101,45.049529 74.3558415,45.049529 C64.3270454,45.049529 58.3456529,49.2842978 58.3456529,56.3827356 C58.3456529,64.0821707 64.2976703,66.209876 73.9239491,67.161786 C85.4397572,68.2907401 86.3352988,69.9738503 86.3352988,72.2389037 C86.3352988,76.1735707 83.1770855,77.8495356 75.7698128,77.8495356 Z" fill="#FFF" fill-rule="nonzero"/>
      </g>
    </g>
  </g>
</svg>
